<?xml version="1.0" standalone="no"?>
<!DOCTYPE svg PUBLIC "-//W3C//DTD SVG 20010904//EN"
 "http://www.w3.org/TR/2001/REC-SVG-20010904/DTD/svg10.dtd">
<svg version="1.0" xmlns="http://www.w3.org/2000/svg"
 width="500.000000pt" height="500.000000pt" viewBox="0 0 500.000000 500.000000"
 preserveAspectRatio="xMidYMid meet">

<g transform="translate(0.000000,500.000000) scale(0.100000,-0.100000)"
fill="#000000" stroke="none">
<path d="M1670 2729 c-61 -25 -89 -88 -70 -159 14 -53 56 -80 125 -80 64 0 96
17 117 60 59 116 -49 228 -172 179z m92 -66 c21 -19 24 -72 6 -95 -33 -40 -84
-26 -94 27 -12 66 43 109 88 68z"/>
<path d="M1890 2705 c0 -34 1 -35 40 -35 l40 0 0 -90 0 -90 40 0 40 0 0 90 0
90 41 0 c39 0 40 1 37 33 l-3 32 -117 3 -118 3 0 -36z"/>
<path d="M2300 2615 l0 -125 40 0 40 0 0 45 0 45 50 0 c47 0 50 2 50 25 0 23
-3 25 -50 25 -47 0 -50 2 -50 25 0 24 3 25 61 25 60 0 60 0 57 28 l-3 27 -97
3 -98 3 0 -126z"/>
<path d="M2547 2733 c-4 -3 -7 -60 -7 -125 l0 -118 105 0 105 0 0 30 0 30 -65
0 -65 0 0 95 0 95 -33 0 c-19 0 -37 -3 -40 -7z"/>
<path d="M2843 2725 c-71 -31 -86 -152 -24 -207 27 -24 40 -28 92 -28 56 0 64
3 95 34 30 30 34 40 34 88 0 63 -18 94 -66 114 -42 18 -90 17 -131 -1z m105
-57 c7 -7 12 -31 12 -55 0 -34 -5 -46 -25 -59 -23 -15 -27 -15 -50 0 -19 12
-25 25 -25 52 0 50 16 74 48 74 16 0 33 -5 40 -12z"/>
<path d="M3070 2733 c1 -5 13 -60 28 -123 l28 -115 44 0 43 0 17 70 c16 69 16
69 24 35 25 -113 23 -110 69 -110 l43 0 27 118 c15 64 27 121 27 125 0 5 -17
7 -37 5 l-38 -3 -14 -69 -15 -69 -15 69 c-16 68 -17 69 -50 72 -40 4 -47 -5
-56 -70 -9 -61 -21 -61 -30 -2 -10 70 -13 74 -56 74 -21 0 -39 -3 -39 -7z"/>
<path d="M2100 2281 l0 -61 34 0 c36 0 62 22 50 41 -4 7 -7 26 -8 43 -1 28 -4
31 -38 34 l-38 3 0 -60z m65 29 c0 -8 -10 -16 -22 -18 -18 -3 -23 2 -23 18 0
16 5 21 23 18 12 -2 22 -10 22 -18z m0 -55 c0 -13 -8 -21 -22 -23 -19 -3 -23
1 -23 23 0 22 4 26 23 23 14 -2 22 -10 22 -23z"/>
<path d="M2210 2337 c0 -4 7 -22 17 -40 9 -17 19 -43 24 -57 7 -25 7 -25 8 4
1 16 10 44 22 62 11 19 16 34 11 34 -5 0 -14 -11 -20 -25 -11 -23 -32 -35 -32
-17 0 11 -29 49 -30 39z"/>
<path d="M2382 2280 c11 -33 24 -60 28 -60 4 0 17 27 28 60 12 33 17 60 13 60
-5 0 -14 -20 -21 -45 -7 -25 -16 -45 -20 -45 -4 0 -13 20 -20 45 -7 25 -16 45
-21 45 -4 0 1 -27 13 -60z"/>
<path d="M2480 2280 c0 -33 4 -60 10 -60 6 0 10 27 10 60 0 33 -4 60 -10 60
-6 0 -10 -27 -10 -60z"/>
<path d="M2540 2280 l0 -60 30 0 c34 0 70 31 70 60 0 29 -36 60 -70 60 l-30 0
0 -60z m68 38 c19 -19 15 -66 -7 -78 -34 -18 -41 -12 -41 40 0 41 3 50 18 50
10 0 23 -5 30 -12z"/>
<path d="M2671 2295 c-1 -55 11 -75 44 -75 33 0 45 20 43 75 l-1 50 -6 -49
c-11 -89 -59 -88 -72 2 l-6 47 -2 -50z"/>
<path d="M2802 2278 l1 -63 6 50 6 50 33 -47 c18 -27 37 -48 42 -48 6 0 10 27
10 60 0 33 -4 60 -10 60 -5 0 -10 -21 -10 -47 l0 -48 -31 48 c-17 26 -35 47
-40 47 -5 0 -8 -28 -7 -62z"/>
</g>
</svg>
